<mxfile host="app.diagrams.net" modified="2023-03-30T18:25:26.770Z" agent="Mozilla/5.0 (Windows NT 10.0; Win64; x64) AppleWebKit/537.36 (KHTML, like Gecko) Chrome/111.0.0.0 Safari/537.36" version="21.1.2" etag="PbONzF3rlDtWVFFMtgTp" type="github">
  <diagram name="PÃ¡gina-1" id="e63tKuLby24X1PWRRy0_">
    <mxGraphModel>
      <root>
        <mxCell id="0" />
        <mxCell id="1" parent="0" />
      </root>
    </mxGraphModel>
  </diagram>
</mxfile>
